<?xml version="1.0" encoding="UTF-8"?>
<svg id="Vrstva_1" data-name="Vrstva 1" xmlns="http://www.w3.org/2000/svg" viewBox="0 0 1280 720">
  <defs>
    <style>
      .cls-1 {
        fill: #fff;
      }

      .cls-2 {
        fill: #3666af;
      }
    </style>
  </defs>
  <rect class="cls-2" width="1280" height="720"/>
  <g>
    <path class="cls-1" d="M259.27,234.01v39.77h-54v164.02h-49.64v-164.02h-54v-39.77h157.63Z"/>
    <path class="cls-1" d="M283.8,312.68c6.29-12.58,14.85-22.25,25.69-29.03,10.84-6.77,22.93-10.16,36.29-10.16,11.42,0,21.43,2.32,30.05,6.97,8.61,4.65,15.24,10.74,19.89,18.29v-22.93h49.64v161.99h-49.64v-22.93c-4.84,7.55-11.57,13.64-20.18,18.29-8.61,4.64-18.63,6.97-30.05,6.97-13.16,0-25.16-3.43-36-10.31-10.84-6.87-19.41-16.64-25.69-29.32-6.29-12.67-9.44-27.33-9.44-43.98s3.14-31.25,9.44-43.84ZM385.41,327.49c-6.87-7.16-15.24-10.74-25.11-10.74s-18.24,3.53-25.11,10.6c-6.87,7.07-10.31,16.79-10.31,29.18s3.43,22.21,10.31,29.46c6.87,7.26,15.24,10.89,25.11,10.89s18.24-3.58,25.11-10.74c6.87-7.16,10.31-16.93,10.31-29.32s-3.44-22.16-10.31-29.32Z"/>
    <path class="cls-1" d="M509.51,432.87c-11.03-4.83-19.74-11.47-26.13-19.89-6.39-8.42-9.97-17.85-10.74-28.3h49.06c.58,5.62,3.19,10.16,7.84,13.64,4.65,3.48,10.35,5.23,17.13,5.23,6.19,0,10.98-1.21,14.37-3.63,3.38-2.42,5.08-5.56,5.08-9.43,0-4.64-2.42-8.08-7.26-10.31-4.84-2.22-12.68-4.69-23.51-7.4-11.61-2.71-21.29-5.56-29.03-8.56-7.74-3-14.42-7.74-20.03-14.23-5.62-6.48-8.42-15.24-8.42-26.27,0-9.29,2.56-17.75,7.69-25.4,5.13-7.64,12.67-13.69,22.64-18.14,9.97-4.45,21.82-6.68,35.56-6.68,20.32,0,36.33,5.03,48.04,15.1,11.71,10.07,18.43,23.42,20.18,40.06h-45.87c-.78-5.61-3.24-10.06-7.4-13.35-4.16-3.29-9.63-4.94-16.4-4.94-5.81,0-10.26,1.12-13.35,3.34-3.1,2.23-4.64,5.28-4.64,9.14,0,4.64,2.47,8.13,7.4,10.45,4.94,2.32,12.63,4.65,23.08,6.97,12,3.1,21.77,6.15,29.32,9.14,7.55,3,14.17,7.84,19.89,14.52,5.71,6.68,8.66,15.63,8.85,26.85,0,9.49-2.66,17.95-7.98,25.4-5.33,7.45-12.97,13.31-22.93,17.56-9.97,4.25-21.53,6.39-34.69,6.39-14.13,0-26.71-2.42-37.74-7.26Z"/>
    <path class="cls-1" d="M742.33,437.8l-49.35-67.93v67.93h-49.64v-214.82h49.64v118.73l49.06-65.9h61.25l-67.35,81.29,67.93,80.7h-61.54Z"/>
    <path class="cls-1" d="M826.37,251.28c-5.52-5.13-8.27-11.47-8.27-19.02s2.76-14.17,8.27-19.31c5.52-5.13,12.63-7.69,21.34-7.69s15.53,2.57,21.05,7.69c5.52,5.13,8.27,11.57,8.27,19.31s-2.76,13.89-8.27,19.02c-5.52,5.13-12.53,7.69-21.05,7.69s-15.82-2.56-21.34-7.69ZM872.39,275.81v161.99h-49.64v-161.99h49.64Z"/>
    <path class="cls-1" d="M989.67,317.03h-26.71v120.77h-49.64v-120.77h-18v-41.22h18v-4.64c0-19.93,5.71-35.08,17.13-45.43,11.42-10.35,28.16-15.53,50.22-15.53,3.67,0,6.39.1,8.13.29v42.09c-9.49-.58-16.16.78-20.03,4.06-3.87,3.29-5.81,9.19-5.81,17.71v1.45h26.71v41.22Z"/>
    <path class="cls-1" d="M1178.36,275.81l-101.61,238.92h-53.42l37.16-82.45-65.9-156.47h55.45l37.45,101.32,37.16-101.32h53.71Z"/>
  </g>
</svg>