<?xml version="1.0" encoding="UTF-8"?>
<svg id="Vrstva_1" data-name="Vrstva 1" xmlns="http://www.w3.org/2000/svg" viewBox="0 0 94.43 116.59">
  <defs>
    <style>
      .cls-1, .cls-2 {
        fill: #fff;
      }

      .cls-1, .cls-3, .cls-4 {
        stroke: #333;
        stroke-miterlimit: 10;
      }

      .cls-1, .cls-4 {
        stroke-width: 1.24px;
      }

      .cls-3 {
        fill: none;
        stroke-width: 2.55px;
      }

      .cls-4 {
        fill: #606060;
      }

      .cls-5 {
        fill: #333;
      }
    </style>
  </defs>
  <g>
    <circle class="cls-5" cx="47.22" cy="69.38" r="47.22"/>
    <circle class="cls-2" cx="47.22" cy="69.38" r="39.35"/>
    <circle class="cls-5" cx="47.22" cy="69.38" r="4.25"/>
    <path class="cls-5" d="M59.8,47.16h0c.97,0,1.75.78,1.75,1.75v24.11h-3.5v-24.11c0-.97.78-1.75,1.75-1.75Z" transform="translate(72.26 -23.76) rotate(53.31)"/>
    <path class="cls-5" d="M37.41,52.96h.4c.86,0,1.55.7,1.55,1.55v18.26h-3.5v-18.26c0-.86.7-1.55,1.55-1.55Z" transform="translate(-35.49 58.14) rotate(-55.41)"/>
    <rect class="cls-5" x="45.44" y="32.82" width="3.21" height="7.78" rx="1.48" ry="1.48"/>
    <rect class="cls-5" x="45.61" y="98.15" width="3.21" height="7.78" rx="1.48" ry="1.48"/>
    <rect class="cls-5" x="78.36" y="65.49" width="3.21" height="7.78" rx="1.48" ry="1.48" transform="translate(149.34 -10.59) rotate(90)"/>
    <rect class="cls-5" x="12.86" y="65.49" width="3.21" height="7.78" rx="1.48" ry="1.48" transform="translate(83.84 54.91) rotate(90)"/>
    <rect class="cls-5" x="62.61" y="37.38" width="2.66" height="6.43" rx="1.22" ry="1.22" transform="translate(28.87 -26.53) rotate(30)"/>
    <rect class="cls-5" x="28.83" y="94.94" width="2.66" height="6.43" rx="1.22" ry="1.22" transform="translate(53.12 -1.93) rotate(30)"/>
    <rect class="cls-5" x="28.73" y="37.38" width="2.66" height="6.43" rx="1.22" ry="1.22" transform="translate(-16.27 20.47) rotate(-30)"/>
    <rect class="cls-5" x="62.61" y="94.94" width="2.66" height="6.43" rx="1.22" ry="1.22" transform="translate(-40.51 45.12) rotate(-30)"/>
    <rect class="cls-5" x="74.75" y="49.6" width="2.66" height="6.43" rx="1.22" ry="1.22" transform="translate(78.98 -39.75) rotate(57.03)"/>
    <rect class="cls-5" x="17.03" y="82.72" width="2.66" height="6.43" rx="1.22" ry="1.22" transform="translate(80.46 23.77) rotate(57.03)"/>
    <rect class="cls-5" x="16.64" y="49.6" width="2.66" height="6.43" rx="1.22" ry="1.22" transform="translate(72.69 63.66) rotate(120)"/>
    <rect class="cls-5" x="74.75" y="83.15" width="2.66" height="6.43" rx="1.22" ry="1.22" transform="translate(188.91 63.66) rotate(120)"/>
    <rect class="cls-5" x="13.44" y="19.92" width="8.16" height="14.57" transform="translate(-12.79 15.86) rotate(-36.69)"/>
    <rect class="cls-5" x="10.83" y="16.4" width="8.26" height="14.76" rx="2.35" ry="2.35" transform="translate(4.83 49.99) rotate(-126.69)"/>
    <rect class="cls-5" x="72.57" y="19.89" width="8.16" height="14.57" transform="translate(28.7 -38.51) rotate(34.36)"/>
    <rect class="cls-5" x="74.93" y="16.26" width="8.26" height="14.76" rx="2.35" ry="2.35" transform="translate(14.92 75.57) rotate(-55.64)"/>
    <circle class="cls-3" cx="47.05" cy="13.35" r="12.07"/>
  </g>
  <g>
    <g>
      <path class="cls-4" d="M16.21,104.05c3.92-3.24,7-5.9,9.26-7.97,2.26-2.08,4.17-4.26,5.73-6.54s2.34-4.5,2.34-6.66c0-1.64-.38-2.92-1.14-3.84-.76-.92-1.9-1.38-3.42-1.38s-2.71.57-3.57,1.71c-.86,1.14-1.29,2.75-1.29,4.83h-9.89c.08-3.4.81-6.24,2.19-8.51,1.38-2.28,3.2-3.96,5.46-5.04,2.26-1.08,4.77-1.62,7.52-1.62,4.76,0,8.34,1.22,10.76,3.66,2.42,2.44,3.63,5.62,3.63,9.53,0,4.28-1.46,8.24-4.38,11.9-2.92,3.66-6.64,7.23-11.15,10.7h16.19v8.33H14.35v-7.61c1.36-1.08,1.98-1.58,1.86-1.5Z"/>
      <path class="cls-4" d="M52.93,75.03c2.66-3.96,6.94-5.94,12.86-5.94s10.2,1.98,12.86,5.94c2.66,3.96,3.99,9.37,3.99,16.25s-1.33,12.41-3.99,16.37c-2.66,3.96-6.95,5.94-12.86,5.94s-10.2-1.98-12.86-5.94c-2.66-3.96-3.99-9.41-3.99-16.37s1.33-12.29,3.99-16.25ZM71.25,81.96c-.88-2.18-2.7-3.27-5.46-3.27s-4.58,1.09-5.46,3.27c-.88,2.18-1.32,5.29-1.32,9.32,0,2.72.16,4.97.48,6.75.32,1.78.97,3.22,1.95,4.32.98,1.1,2.43,1.65,4.35,1.65s3.37-.55,4.35-1.65c.98-1.1,1.63-2.54,1.95-4.32.32-1.78.48-4.03.48-6.75,0-4.04-.44-7.14-1.32-9.32Z"/>
    </g>
    <g>
      <path class="cls-1" d="M16.2,100.89c3.92-3.24,7-5.9,9.26-7.97,2.26-2.08,4.17-4.26,5.73-6.54s2.34-4.5,2.34-6.66c0-1.64-.38-2.92-1.14-3.84-.76-.92-1.9-1.38-3.42-1.38s-2.71.57-3.57,1.71c-.86,1.14-1.29,2.75-1.29,4.83h-9.89c.08-3.4.81-6.24,2.19-8.51,1.38-2.28,3.2-3.96,5.46-5.04,2.26-1.08,4.77-1.62,7.52-1.62,4.76,0,8.34,1.22,10.76,3.66,2.42,2.44,3.63,5.62,3.63,9.53,0,4.28-1.46,8.24-4.38,11.9-2.92,3.66-6.64,7.23-11.15,10.7h16.19v8.33H14.35v-7.61c1.36-1.08,1.98-1.58,1.86-1.5Z"/>
      <path class="cls-1" d="M52.93,71.87c2.66-3.96,6.94-5.94,12.86-5.94s10.2,1.98,12.86,5.94c2.66,3.96,3.99,9.37,3.99,16.25s-1.33,12.41-3.99,16.37c-2.66,3.96-6.95,5.94-12.86,5.94s-10.2-1.98-12.86-5.94c-2.66-3.96-3.99-9.41-3.99-16.37s1.33-12.29,3.99-16.25ZM71.25,78.8c-.88-2.18-2.7-3.27-5.46-3.27s-4.58,1.09-5.46,3.27c-.88,2.18-1.32,5.29-1.32,9.32,0,2.72.16,4.97.48,6.75.32,1.78.97,3.22,1.95,4.32.98,1.1,2.43,1.65,4.35,1.65s3.37-.55,4.35-1.65c.98-1.1,1.63-2.54,1.95-4.32.32-1.78.48-4.03.48-6.75,0-4.04-.44-7.14-1.32-9.32Z"/>
    </g>
  </g>
</svg>