<?xml version="1.0" encoding="UTF-8"?>
<svg id="Vrstva_1" data-name="Vrstva 1" xmlns="http://www.w3.org/2000/svg" viewBox="0 0 92.43 114.95">
  <defs>
    <style>
      .cls-1 {
        opacity: .6;
      }

      .cls-2 {
        fill: #fff;
      }

      .cls-3 {
        fill: #606060;
      }

      .cls-4, .cls-5, .cls-6 {
        fill: #fc3;
      }

      .cls-5, .cls-7, .cls-6 {
        stroke: #42210b;
        stroke-miterlimit: 10;
      }

      .cls-7 {
        fill: #e6e6e6;
        stroke-width: 1.2px;
      }

      .cls-8 {
        fill: #0d6efd;
      }

      .cls-9 {
        fill: #42210b;
      }

      .cls-6 {
        stroke-width: .6px;
      }
    </style>
  </defs>
  <g id="_100" data-name="100">
    <g>
      <path class="cls-4" d="M46.33,114.37s7.15-6.18,23.16-9.87c16.01-3.7,22.33-10.81,22.33-18.4V26.6c0-9.7-7.86-17.56-17.56-17.56H18.23C8.54,9.04.67,16.9.67,26.6v3.74s0,55.75,0,55.75c0,7.59,6.33,14.71,22.33,18.4,16.01,3.7,23.32,9.87,23.32,9.87Z"/>
      <path class="cls-9" d="M46.76,114.79c1.03-.89,2.34-1.68,3.56-2.4,3.47-2.04,7.19-3.64,11-4.95,9.11-3.13,19.75-3.95,26.81-11.26,2.11-2.18,3.65-4.9,4.12-7.92.18-1.14.17-2.28.17-3.43v-49.39c0-2.8,0-5.59,0-8.39-.01-8.47-5.54-16.12-13.93-18.12-3.26-.78-6.82-.5-10.16-.5H19.18c-6.32,0-12.17,2.52-15.87,7.8C1.04,19.5.07,23.3.07,27.23c0,1.3,0,2.6,0,3.9,0,10.48,0,20.96,0,31.44,0,5.8,0,11.6,0,17.4,0,2.81-.27,5.82.23,8.6,1.32,7.38,8.45,11.77,14.92,14.22,5.32,2.02,10.97,2.91,16.35,4.77,3.83,1.33,7.58,2.96,11.07,5.03,1.1.65,2.38,1.45,3.27,2.19.59.49,1.44-.35.85-.85-3.78-3.18-8.71-5.26-13.28-6.96-9.19-3.42-20.14-4-27.61-11.02-2.26-2.12-3.96-4.83-4.45-7.92-.17-1.09-.15-2.2-.15-3.3v-12.74c0-11.96,0-23.91,0-35.87,0-2.6,0-5.19,0-7.79,0-4.05.58-7.79,2.89-11.23,2.49-3.71,6.43-6.3,10.81-7.17,3.05-.6,6.41-.31,9.5-.31h48.61c1.6,0,3.18.04,4.76.38,4.47.97,8.42,3.76,10.83,7.65,2.1,3.4,2.54,7.03,2.54,10.93,0,.98,0,1.95,0,2.93v48.45c0,2.69.29,5.62-.18,8.28-1.39,7.85-9.65,12.02-16.49,14.23-5.31,1.71-10.78,2.69-16.01,4.69-3.31,1.27-6.56,2.77-9.58,4.63-1.05.65-2.11,1.33-3.05,2.13-.59.5.27,1.35.85.85Z"/>
    </g>
    <g>
      <path class="cls-4" d="M87.71,84.11V31.45H5.07v52.66c0,7.17,5.74,13.89,20.25,17.38,14.51,3.49,21.15,9.33,21.15,9.33,0,0,6.49-5.84,21-9.33s20.25-10.21,20.25-17.38Z"/>
      <path class="cls-9" d="M88.31,84.11V31.45c0-.32-.27-.6-.6-.6H5.07c-.32,0-.6.27-.6.6v36.58c0,5.21,0,10.43,0,15.64,0,7.9,6.06,13.01,12.88,15.88,3.68,1.55,7.53,2.35,11.35,3.45,3.38.98,6.7,2.2,9.87,3.72,2.57,1.23,5.31,2.63,7.47,4.52.25.22.59.23.85,0,1.01-.9,2.19-1.64,3.34-2.34,3.35-2.04,6.97-3.62,10.68-4.89,8.33-2.86,18.2-3.84,24.16-11.12,2.06-2.51,3.22-5.54,3.25-8.79,0-.77-1.19-.77-1.2,0-.06,7.24-6.2,11.88-12.34,14.43-4.77,1.98-9.89,2.8-14.75,4.52-3.47,1.22-6.87,2.71-10.03,4.59-1.37.81-2.76,1.68-3.95,2.75h.85c-1.69-1.48-3.73-2.64-5.71-3.69-5.39-2.87-11.14-4.57-17.01-6.12-8.08-2.13-18.44-6.81-18.5-16.57-.08-12.54,0-25.09,0-37.63v-14.93l-.6.6h82.64l-.6-.6v52.66c0,.77,1.2.77,1.2,0Z"/>
    </g>
    <g>
      <path class="cls-8" d="M84.65,34.89H7.99s0,48.01,0,48.01c0,6.53,5.32,12.67,18.78,15.85,13.46,3.18,19.61,8.5,19.61,8.5,0,0,6.02-5.32,19.48-8.5s18.78-9.31,18.78-15.85v-48.01H7.99v48.01"/>
      <path class="cls-9" d="M84.65,34.29c-8.68,0-17.35,0-26.03,0-13.72,0-27.44,0-41.17,0-3.15,0-6.31,0-9.46,0-.32,0-.6.27-.6.6,0,11.12,0,22.25,0,33.37,0,4.77,0,9.54,0,14.31.01,7.31,5.84,11.93,12.1,14.51,3.45,1.42,7.08,2.13,10.65,3.17,3.02.88,5.98,1.94,8.83,3.28,2.4,1.12,4.97,2.41,6.99,4.14.26.22.59.23.85,0,1.57-1.38,3.52-2.43,5.37-3.39,2.31-1.19,4.71-2.19,7.16-3.03,3.18-1.1,6.46-1.77,9.67-2.72,7.41-2.2,16.12-6.84,16.23-15.65.14-11.35,0-22.7,0-34.05v-13.95c0-.32-.27-.6-.6-.6H7.99c-.32,0-.6.27-.6.6v48.01c0,.77,1.2.77,1.2,0v-48.01l-.6.6h76.66l-.6-.6v47.48c0,7.59-6.49,11.92-13.01,14.25-3.56,1.27-7.28,1.94-10.87,3.1-2.68.87-5.32,1.91-7.85,3.16-2.2,1.09-4.5,2.32-6.35,3.95h.85c-1.52-1.31-3.34-2.34-5.11-3.27-4.95-2.62-10.25-4.23-15.66-5.6-7.45-1.89-17.39-6.06-17.46-15.14-.09-11.4,0-22.81,0-34.21,0-4.57,0-9.15,0-13.72l-.6.6c8.68,0,17.35,0,26.03,0,13.72,0,27.44,0,41.17,0,3.15,0,6.31,0,9.46,0,.77,0,.77-1.2,0-1.2h0Z"/>
    </g>
    <path class="cls-7" d="M21.03,12.12h50.72c8.81,0,15.96,7.15,15.96,15.96v3.45H5.07v-3.45c0-8.81,7.15-15.96,15.96-15.96Z"/>
    <circle class="cls-6" cx="65.31" cy="20.12" r="5.98"/>
    <circle class="cls-6" cx="27.11" cy="20.12" r="5.98"/>
    <rect class="cls-5" x="23.46" y=".5" width="7.3" height="22.87" rx="3.65" ry="3.65"/>
    <rect class="cls-5" x="61.66" y=".5" width="7.3" height="22.87" rx="3.65" ry="3.65"/>
    <polygon class="cls-4" points="46.25 89.4 47.75 94.02 52.62 94.02 48.68 96.88 50.19 101.51 46.25 98.65 42.32 101.51 43.82 96.88 39.88 94.02 44.75 94.02 46.25 89.4"/>
    <g class="cls-1">
      <g>
        <path class="cls-3" d="M38.92,94.14s-6.6-.13-7.98-6.52c0,0,6.57.37,7.98,6.52Z"/>
        <path class="cls-3" d="M33.56,89.76s3.97,4.28,5.36,4.38c0,0-.17-1.37-5.36-4.38Z"/>
      </g>
      <g>
        <path class="cls-3" d="M38.06,95.19s-4.41,4.92-10.15,1.79c0,0,4.57-4.74,10.15-1.79Z"/>
        <path class="cls-3" d="M31.24,96.38s5.83-.21,6.82-1.2c0,0-1.15-.76-6.82,1.2Z"/>
      </g>
      <g>
        <path class="cls-3" d="M30.92,92.81s-5.96-1.83-5.56-8c0,0,5.88,2.04,5.56,8Z"/>
        <path class="cls-3" d="M27.19,87.43s2.49,4.92,3.73,5.37c0,0,.2-1.29-3.73-5.37Z"/>
      </g>
      <g>
        <path class="cls-3" d="M29.6,93.72s-5.29,3.31-9.69-1.03c0,0,5.39-3.11,9.69,1.03Z"/>
        <path class="cls-3" d="M23.09,93.02s5.35,1.33,6.5.7c0,0-.84-.99-6.5-.7Z"/>
      </g>
      <g>
        <path class="cls-3" d="M23.22,89.57s-4.8-3.99-2.05-9.52c0,0,4.64,4.15,2.05,9.52Z"/>
        <path class="cls-3" d="M21.85,83.17s.41,5.5,1.37,6.4c0,0,.68-1.11-1.37-6.4Z"/>
      </g>
      <g>
        <path class="cls-3" d="M18.47,83.95s-3.81-4.94.08-9.74c0,0,3.62,5.06-.08,9.74Z"/>
        <path class="cls-3" d="M18.53,77.41s-.8,5.45-.06,6.54c0,0,.91-.94.06-6.54Z"/>
      </g>
      <g>
        <path class="cls-3" d="M15.12,78.48s-4.46-4.37-1.27-9.66c0,0,4.29,4.51,1.27,9.66Z"/>
        <path class="cls-3" d="M14.27,71.99s-.04,5.51.85,6.49c0,0,.77-1.05-.85-6.49Z"/>
      </g>
      <g>
        <path class="cls-3" d="M17.29,85.35s-6.06-1.47-6.03-7.65c0,0,5.99,1.68,6.03,7.65Z"/>
        <path class="cls-3" d="M13.24,80.21s2.79,4.75,4.05,5.14c0,0,.12-1.3-4.05-5.14Z"/>
      </g>
      <g>
        <path class="cls-3" d="M22.5,90.51s-6.12,1.22-8.69-4.39c0,0,6.14-1,8.69,4.39Z"/>
        <path class="cls-3" d="M16.67,87.55s4.53,3.14,5.84,2.95c0,0-.44-1.23-5.84-2.95Z"/>
      </g>
    </g>
    <g class="cls-1">
      <g>
        <path class="cls-3" d="M53.58,94.14s6.6-.13,7.98-6.52c0,0-6.57.37-7.98,6.52Z"/>
        <path class="cls-3" d="M58.94,89.76s-3.97,4.27-5.36,4.38c0,0,.17-1.37,5.36-4.38Z"/>
      </g>
      <g>
        <path class="cls-3" d="M54.44,95.19s4.41,4.92,10.15,1.79c0,0-4.57-4.74-10.15-1.79Z"/>
        <path class="cls-3" d="M61.26,96.38s-5.83-.21-6.82-1.2c0,0,1.15-.76,6.82,1.2Z"/>
      </g>
      <g>
        <path class="cls-3" d="M61.58,92.81s5.96-1.83,5.56-8c0,0-5.88,2.04-5.56,8Z"/>
        <path class="cls-3" d="M65.31,87.43s-2.49,4.92-3.73,5.37c0,0-.2-1.29,3.73-5.37Z"/>
      </g>
      <g>
        <path class="cls-3" d="M62.9,93.72s5.29,3.31,9.69-1.03c0,0-5.39-3.11-9.69,1.03Z"/>
        <path class="cls-3" d="M69.41,93.02s-5.35,1.33-6.5.7c0,0,.84-.99,6.5-.7Z"/>
      </g>
      <g>
        <path class="cls-3" d="M69.28,89.57s4.8-3.99,2.05-9.52c0,0-4.64,4.15-2.05,9.52Z"/>
        <path class="cls-3" d="M70.65,83.17s-.41,5.5-1.37,6.4c0,0-.68-1.11,1.37-6.4Z"/>
      </g>
      <g>
        <path class="cls-3" d="M74.03,83.95s3.81-4.94-.08-9.74c0,0-3.62,5.06.08,9.74Z"/>
        <path class="cls-3" d="M73.97,77.41s.8,5.45.06,6.54c0,0-.91-.94-.06-6.54Z"/>
      </g>
      <g>
        <path class="cls-3" d="M77.39,78.48s4.46-4.37,1.27-9.66c0,0-4.29,4.51-1.27,9.66Z"/>
        <path class="cls-3" d="M78.23,71.99s.04,5.51-.85,6.49c0,0-.77-1.05.85-6.49Z"/>
      </g>
      <g>
        <path class="cls-3" d="M75.21,85.35s6.06-1.47,6.03-7.65c0,0-5.99,1.68-6.03,7.65Z"/>
        <path class="cls-3" d="M79.26,80.21s-2.79,4.75-4.05,5.14c0,0-.12-1.3,4.05-5.14Z"/>
      </g>
      <g>
        <path class="cls-3" d="M70,90.51s6.12,1.22,8.69-4.39c0,0-6.14-1-8.69,4.39Z"/>
        <path class="cls-3" d="M75.84,87.55s-4.53,3.14-5.84,2.95c0,0,.44-1.23,5.84-2.95Z"/>
      </g>
    </g>
    <g>
      <g>
        <path class="cls-4" d="M53.58,92.98s6.6-.13,7.98-6.52c0,0-6.57.37-7.98,6.52Z"/>
        <path class="cls-9" d="M58.94,88.6s-3.97,4.27-5.36,4.38c0,0,.17-1.37,5.36-4.38Z"/>
      </g>
      <g>
        <path class="cls-4" d="M54.44,94.02s4.41,4.92,10.15,1.79c0,0-4.57-4.74-10.15-1.79Z"/>
        <path class="cls-9" d="M61.26,95.22s-5.83-.21-6.82-1.2c0,0,1.15-.76,6.82,1.2Z"/>
      </g>
      <g>
        <path class="cls-4" d="M61.58,91.65s5.96-1.83,5.56-8c0,0-5.88,2.04-5.56,8Z"/>
        <path class="cls-9" d="M65.31,86.27s-2.49,4.92-3.73,5.37c0,0-.2-1.29,3.73-5.37Z"/>
      </g>
      <g>
        <path class="cls-4" d="M62.9,92.56s5.29,3.31,9.69-1.03c0,0-5.39-3.11-9.69,1.03Z"/>
        <path class="cls-9" d="M69.41,91.86s-5.35,1.33-6.5.7c0,0,.84-.99,6.5-.7Z"/>
      </g>
      <g>
        <path class="cls-4" d="M69.28,88.41s4.8-3.99,2.05-9.52c0,0-4.64,4.15-2.05,9.52Z"/>
        <path class="cls-9" d="M70.65,82.01s-.41,5.5-1.37,6.4c0,0-.68-1.11,1.37-6.4Z"/>
      </g>
      <g>
        <path class="cls-4" d="M74.03,82.79s3.81-4.94-.08-9.74c0,0-3.62,5.06.08,9.74Z"/>
        <path class="cls-9" d="M73.97,76.25s.8,5.45.06,6.54c0,0-.91-.94-.06-6.54Z"/>
      </g>
      <g>
        <path class="cls-4" d="M77.39,77.31s4.46-4.37,1.27-9.66c0,0-4.29,4.51-1.27,9.66Z"/>
        <path class="cls-9" d="M78.23,70.83s.04,5.51-.85,6.49c0,0-.77-1.05.85-6.49Z"/>
      </g>
      <g>
        <path class="cls-4" d="M75.21,84.19s6.06-1.47,6.03-7.65c0,0-5.99,1.68-6.03,7.65Z"/>
        <path class="cls-9" d="M79.26,79.05s-2.79,4.75-4.05,5.14c0,0-.12-1.3,4.05-5.14Z"/>
      </g>
      <g>
        <path class="cls-4" d="M70,89.34s6.12,1.22,8.69-4.39c0,0-6.14-1-8.69,4.39Z"/>
        <path class="cls-9" d="M75.84,86.39s-4.53,3.14-5.84,2.95c0,0,.44-1.23,5.84-2.95Z"/>
      </g>
    </g>
    <g>
      <g>
        <path class="cls-4" d="M38.92,92.96s-6.6-.13-7.98-6.52c0,0,6.57.37,7.98,6.52Z"/>
        <path class="cls-9" d="M33.56,88.57s3.97,4.28,5.36,4.38c0,0-.17-1.37-5.36-4.38Z"/>
      </g>
      <g>
        <path class="cls-4" d="M38.06,94s-4.41,4.92-10.15,1.79c0,0,4.57-4.74,10.15-1.79Z"/>
        <path class="cls-9" d="M31.24,95.2s5.83-.21,6.82-1.2c0,0-1.15-.76-6.82,1.2Z"/>
      </g>
      <g>
        <path class="cls-4" d="M30.92,91.62s-5.96-1.83-5.56-8c0,0,5.88,2.04,5.56,8Z"/>
        <path class="cls-9" d="M27.19,86.25s2.49,4.92,3.73,5.37c0,0,.2-1.29-3.73-5.37Z"/>
      </g>
      <g>
        <path class="cls-4" d="M29.6,92.53s-5.29,3.31-9.69-1.03c0,0,5.39-3.11,9.69,1.03Z"/>
        <path class="cls-9" d="M23.09,91.84s5.35,1.33,6.5.7c0,0-.84-.99-6.5-.7Z"/>
      </g>
      <g>
        <path class="cls-4" d="M23.22,88.38s-4.8-3.99-2.05-9.52c0,0,4.64,4.15,2.05,9.52Z"/>
        <path class="cls-9" d="M21.85,81.99s.41,5.5,1.37,6.4c0,0,.68-1.11-1.37-6.4Z"/>
      </g>
      <g>
        <path class="cls-4" d="M18.47,82.77s-3.81-4.94.08-9.74c0,0,3.62,5.06-.08,9.74Z"/>
        <path class="cls-9" d="M18.53,76.22s-.8,5.45-.06,6.54c0,0,.91-.94.06-6.54Z"/>
      </g>
      <g>
        <path class="cls-4" d="M15.12,77.29s-4.46-4.37-1.27-9.66c0,0,4.29,4.51,1.27,9.66Z"/>
        <path class="cls-9" d="M14.27,70.8s-.04,5.51.85,6.49c0,0,.77-1.05-.85-6.49Z"/>
      </g>
      <g>
        <path class="cls-4" d="M17.29,84.17s-6.06-1.47-6.03-7.65c0,0,5.99,1.68,6.03,7.65Z"/>
        <path class="cls-9" d="M13.24,79.03s2.79,4.75,4.05,5.14c0,0,.12-1.3-4.05-5.14Z"/>
      </g>
      <g>
        <path class="cls-4" d="M22.5,89.32s-6.12,1.22-8.69-4.39c0,0,6.14-1,8.69,4.39Z"/>
        <path class="cls-9" d="M16.67,86.36s4.53,3.14,5.84,2.95c0,0-.44-1.23-5.84-2.95Z"/>
      </g>
    </g>
    <g>
      <g>
        <path class="cls-3" d="M23.39,57.81v-5.36h8.17v24.62h-5.25v-19.26h-2.92Z"/>
        <path class="cls-3" d="M36.96,55.28c1.31-2.23,3.41-3.34,6.32-3.34s5.02,1.11,6.32,3.34c1.31,2.23,1.96,5.27,1.96,9.14s-.65,6.98-1.96,9.21c-1.31,2.23-3.42,3.34-6.32,3.34s-5.02-1.11-6.32-3.34c-1.31-2.23-1.96-5.29-1.96-9.21s.65-6.91,1.96-9.14ZM45.97,59.17c-.43-1.23-1.33-1.84-2.68-1.84s-2.25.61-2.68,1.84c-.43,1.23-.65,2.97-.65,5.24,0,1.53.08,2.79.24,3.79.16,1,.48,1.81.96,2.43.48.62,1.19.93,2.14.93s1.66-.31,2.14-.93c.48-.62.8-1.43.96-2.43.16-1,.24-2.26.24-3.79,0-2.27-.22-4.02-.65-5.24Z"/>
        <path class="cls-3" d="M56.18,55.28c1.31-2.23,3.41-3.34,6.32-3.34s5.02,1.11,6.32,3.34c1.31,2.23,1.96,5.27,1.96,9.14s-.65,6.98-1.96,9.21c-1.31,2.23-3.42,3.34-6.32,3.34s-5.02-1.11-6.32-3.34c-1.31-2.23-1.96-5.29-1.96-9.21s.65-6.91,1.96-9.14ZM65.19,59.17c-.43-1.23-1.33-1.84-2.68-1.84s-2.25.61-2.68,1.84c-.43,1.23-.65,2.97-.65,5.24,0,1.53.08,2.79.24,3.79.16,1,.48,1.81.96,2.43.48.62,1.19.93,2.14.93s1.66-.31,2.14-.93c.48-.62.8-1.43.96-2.43.16-1,.24-2.26.24-3.79,0-2.27-.22-4.02-.65-5.24Z"/>
      </g>
      <g>
        <path class="cls-2" d="M23.39,56.03v-5.36h8.17v24.62h-5.25v-19.26h-2.92Z"/>
        <path class="cls-2" d="M36.96,53.5c1.31-2.23,3.41-3.34,6.32-3.34s5.02,1.11,6.32,3.34c1.31,2.23,1.96,5.27,1.96,9.14s-.65,6.98-1.96,9.21c-1.31,2.23-3.42,3.34-6.32,3.34s-5.02-1.11-6.32-3.34c-1.31-2.23-1.96-5.29-1.96-9.21s.65-6.91,1.96-9.14ZM45.97,57.4c-.43-1.23-1.33-1.84-2.68-1.84s-2.25.61-2.68,1.84c-.43,1.23-.65,2.97-.65,5.24,0,1.53.08,2.79.24,3.79.16,1,.48,1.81.96,2.43.48.62,1.19.93,2.14.93s1.66-.31,2.14-.93c.48-.62.8-1.43.96-2.43.16-1,.24-2.26.24-3.79,0-2.27-.22-4.02-.65-5.24Z"/>
        <path class="cls-2" d="M56.18,53.5c1.31-2.23,3.41-3.34,6.32-3.34s5.02,1.11,6.32,3.34c1.31,2.23,1.96,5.27,1.96,9.14s-.65,6.98-1.96,9.21c-1.31,2.23-3.42,3.34-6.32,3.34s-5.02-1.11-6.32-3.34c-1.31-2.23-1.96-5.29-1.96-9.21s.65-6.91,1.96-9.14ZM65.19,57.4c-.43-1.23-1.33-1.84-2.68-1.84s-2.25.61-2.68,1.84c-.43,1.23-.65,2.97-.65,5.24,0,1.53.08,2.79.24,3.79.16,1,.48,1.81.96,2.43.48.62,1.19.93,2.14.93s1.66-.31,2.14-.93c.48-.62.8-1.43.96-2.43.16-1,.24-2.26.24-3.79,0-2.27-.22-4.02-.65-5.24Z"/>
      </g>
    </g>
  </g>
</svg>