<?xml version="1.0" encoding="UTF-8"?>
<svg id="Vrstva_1" data-name="Vrstva 1" xmlns="http://www.w3.org/2000/svg" viewBox="0 0 106.42 103.64">
  <defs>
    <style>
      .cls-1 {
        fill: #e7d8b9;
      }

      .cls-2 {
        fill: #f9eed8;
      }
    </style>
  </defs>
  <g id="Noční_hrdina" data-name="Noční hrdina">
    <g>
      <path class="cls-2" d="M63.11,96.73l-2.33.46-3.57.6c-3.32.18-6.49.2-9.77-.05-7.7-.94-15-3.51-21.33-7.96-3.99-2.74-7.43-5.97-10.43-9.78-1.96-2.54-3.65-5.14-5.15-8.04-1.56-3.28-2.76-6.44-3.61-9.97-1.15-4.71-1.47-9.35-1.19-14.1.2-3.01.73-5.87,1.44-8.86l2.3-6.63,1.09-2.29,2.71-4.64c2.36-3.58,4.97-6.68,8.18-9.45l3.86-3.08c2.24-1.54,4.4-2.86,6.9-4.09,4.41-2.07,8.87-3.35,13.59-4.09,4.44-.61,8.87-.61,13.29.03,5.64.9,10.89,2.61,15.98,5.46,4.68,2.65,8.62,5.94,12.18,9.88l2.65,3.3c2.25,3.17,4.07,6.48,5.57,10.04.85,2.25,1.53,4.42,2.16,6.79l.8,4.36c.3,2.65.45,5.24.45,7.9l-.27,3.58-.48,3.59c-.61,2.81-1.34,5.44-2.34,8.17-1.9,4.8-4.31,9.01-7.67,12.99-3.65,4.44-7.86,8-12.77,10.9l-1.86,1.08-5.28,2.35-5.09,1.55ZM60.18,12.54c.15-1.12.21-1.81.22-2.68-.62-1.21-1.53-1.82-2.82-1.92-1.09.07-2.02.73-2.65,1.79-.25,1.16-.05,2.17.55,3.18l2.24.96,2.46-1.34ZM41.62,21.21c1.06-.52,1.71-.89,2.13-1.82.52-1.58-.02-3.16-1.5-3.91-1.46-.61-3-.02-3.91,1.34-.67,1.44-.16,3.04,1.14,3.92l2.15.47ZM72.06,31.49c2.13.8,4.17.66,6.1-.39,1.5-.81,2.51-2.12,3.28-3.65.5-1.44.54-2.92.27-4.51-.87-2.95-3.32-4.97-6.36-5.39-1.35.04-2.62.19-3.76.62-1.98,1.2-3.35,2.78-3.97,5.02l.09,3.58,1.99,3.31,2.36,1.41ZM37.8,32.1c-.46-.84-.9-1.34-1.65-1.63-1.37-.17-2.44.52-2.8,1.93.07,1,.62,1.8,1.29,2.2,1.04.31,1.6.1,2.66-.44l.5-2.06ZM56.6,45.99c1.22-.57,2.05-.96,2.86-1.64,1.1-1.38,1.68-2.76,1.6-4.57-.13-1.3-.62-2.45-1.45-3.43-1.23-1.29-2.83-2-4.56-1.95-1.66.08-3.13.93-4.29,2.24l-1.28,2.61c.13,1.37.34,2.58.71,3.77l1.19,1.45,2.01,1.28,3.2.23ZM24.12,44.11c1.74-.85,2.67-2.03,2.92-3.83l-.05-2.35c-.6-1.16-1.36-2.09-2.36-2.91l-2.36-.45c-1.71.18-3.02.92-4,2.3-.37.73-.63,1.55-.76,2.37l.26,1.74c.57,1.67,1.76,2.78,3.47,3.29.94.11,1.87.08,2.89-.16ZM88.84,47.56c1.85.11,3.1-1.34,2.98-3.21-.2-1.05-.89-1.9-1.63-2.32-1.06-.36-1.99-.25-2.95.23-.8.61-1.26,1.37-1.25,2.37-.07,1.68,1.16,2.97,2.84,2.93ZM72.52,53.12l1.01-1.42c.25-1.22-.15-2.28-1.23-2.99-.98-.16-1.6-.04-2.52.34l-.89,1.78c.28.84.63,1.48,1.12,2.05.86.29,1.63.36,2.51.25ZM17.66,55.33l1.29-.74c.89-.92.91-2.04.51-3.39-.65-.68-1.4-1.06-2.19-1.25-.92.22-1.55.57-2.38,1.19-.42,1.13-.3,2.16.33,3.39.79.32,1.66.6,2.44.81ZM43.29,61.27c2.24-.04,3.83-1.28,4.08-3.32.28-1.36-.36-2.62-1.17-3.5-1.11-.95-2.26-1.07-3.82-.95l-2.03,1.6c-1.09,1.94-.66,4.18,1.11,5.53l1.83.64ZM81.99,72.9l2.27-1.14c1.24-.98,1.93-2.31,2.41-3.85.1-1.12,0-2.2-.25-3.42-.68-1.48-1.74-2.59-3.14-3.33-2.95-1.5-6.4-.34-8.03,2.53-.59.95-.81,1.96-.9,3.12.17,1.14.4,2.18.86,3.13.98,1.59,2.35,2.44,4.15,2.88l2.64.06ZM60.37,73.96c.91-.89,1.07-2.04.63-3.17-.36-.82-1.14-1.32-2.3-1.77-1.07.19-1.91.7-2.47,1.37-.51,1-.43,1.98,0,3.11,1.05,1.24,2.69,1.45,4.14.46ZM36.22,83.06l1.29-.44c1.13-.58,2-1.4,2.67-2.49l.84-2.07c.26-2.23-.41-4.3-1.96-5.84-2.16-1.91-5.07-2.05-7.63-.6-1.02.82-1.76,1.86-2.38,3.03-.85,2.62-.09,5.55,2.15,7.27l1.61.96c1.03.23,2.2.26,3.41.18ZM66.29,88.73l1.41-.68c1.45-1.27,1.77-3.21.75-4.9-.73-1.1-1.91-1.63-3.19-1.65-1.2.09-2.07.77-3.04,1.86l-.53,2.41,1.55,2.33c1.13.5,2.06.82,3.05.62Z"/>
      <path class="cls-1" d="M72.06,31.49l-2.36-1.41-1.99-3.31-.09-3.58c.62-2.24,1.99-3.82,3.97-5.02,1.14-.44,2.41-.59,3.76-.62,3.05.42,5.49,2.44,6.36,5.39.27,1.59.23,3.08-.27,4.51-.77,1.52-1.78,2.84-3.28,3.65-1.93,1.05-3.97,1.2-6.1.39Z"/>
      <path class="cls-1" d="M36.22,83.06c-1.21.08-2.38.05-3.41-.18l-1.61-.96c-2.24-1.72-3-4.66-2.15-7.27.62-1.17,1.36-2.2,2.38-3.03,2.56-1.45,5.47-1.31,7.63.6,1.55,1.54,2.22,3.61,1.96,5.84l-.84,2.07c-.67,1.09-1.54,1.91-2.67,2.49l-1.29.44Z"/>
      <path class="cls-1" d="M81.99,72.9l-2.64-.06c-1.8-.44-3.17-1.29-4.15-2.88-.46-.95-.69-1.99-.86-3.13.09-1.17.31-2.18.9-3.12,1.64-2.88,5.08-4.03,8.03-2.53,1.41.73,2.47,1.85,3.14,3.33.25,1.22.34,2.3.25,3.42-.48,1.53-1.17,2.86-2.41,3.85l-2.27,1.14Z"/>
      <path class="cls-1" d="M56.6,45.99l-3.2-.23-2.01-1.28-1.19-1.45c-.37-1.19-.58-2.4-.71-3.77l1.28-2.61c1.17-1.31,2.64-2.16,4.29-2.24,1.72-.05,3.33.66,4.56,1.95.83.98,1.32,2.13,1.45,3.43.08,1.81-.5,3.19-1.6,4.57-.81.68-1.65,1.07-2.86,1.64Z"/>
      <path class="cls-1" d="M24.12,44.11c-1.02.24-1.94.27-2.89.16-1.71-.51-2.9-1.62-3.47-3.29l-.26-1.74c.13-.81.39-1.63.76-2.37.98-1.38,2.29-2.11,4-2.3l2.36.45c1,.82,1.77,1.75,2.36,2.91l.05,2.35c-.25,1.8-1.18,2.98-2.92,3.83Z"/>
      <path class="cls-1" d="M43.29,61.27l-1.83-.64c-1.77-1.35-2.2-3.59-1.11-5.53l2.03-1.6c1.56-.12,2.72,0,3.82.95.81.88,1.45,2.14,1.17,3.5-.25,2.04-1.84,3.28-4.08,3.32Z"/>
      <path class="cls-1" d="M66.29,88.73c-.99.2-1.92-.12-3.05-.62l-1.55-2.33.53-2.41c.98-1.09,1.84-1.78,3.04-1.86,1.28.01,2.45.54,3.19,1.65,1.02,1.7.7,3.63-.75,4.9l-1.41.68Z"/>
      <path class="cls-1" d="M41.62,21.21l-2.15-.47c-1.31-.88-1.81-2.49-1.14-3.92.91-1.36,2.45-1.95,3.91-1.34,1.48.75,2.03,2.32,1.5,3.91-.42.93-1.06,1.31-2.13,1.82Z"/>
      <path class="cls-1" d="M88.84,47.56c-1.67.04-2.9-1.25-2.84-2.93-.02-1,.45-1.76,1.25-2.37.95-.48,1.88-.59,2.95-.23.73.42,1.43,1.27,1.63,2.32.12,1.87-1.13,3.32-2.98,3.21Z"/>
      <path class="cls-1" d="M60.18,12.54l-2.46,1.34-2.24-.96c-.6-1.02-.8-2.03-.55-3.18.62-1.06,1.56-1.72,2.65-1.79,1.29.1,2.2.71,2.82,1.92-.01.87-.08,1.56-.22,2.68Z"/>
      <path class="cls-1" d="M60.37,73.96c-1.45.99-3.09.78-4.14-.46-.43-1.13-.51-2.1,0-3.11.56-.67,1.41-1.19,2.47-1.37,1.16.45,1.94.95,2.3,1.77.44,1.13.27,2.28-.63,3.17Z"/>
      <path class="cls-1" d="M17.66,55.33c-.78-.21-1.65-.49-2.44-.81-.63-1.23-.76-2.26-.33-3.39.83-.62,1.46-.97,2.38-1.19.8.19,1.55.57,2.19,1.25.4,1.35.39,2.47-.51,3.39l-1.29.74Z"/>
      <path class="cls-1" d="M72.52,53.12c-.88.11-1.65.04-2.51-.25-.49-.57-.84-1.21-1.12-2.05l.89-1.78c.93-.38,1.55-.5,2.52-.34,1.08.72,1.48,1.78,1.23,2.99l-1.01,1.42Z"/>
      <path class="cls-1" d="M37.8,32.1l-.5,2.06c-1.06.54-1.62.75-2.66.44-.67-.4-1.22-1.2-1.29-2.2.35-1.41,1.43-2.1,2.8-1.93.75.29,1.19.8,1.65,1.63Z"/>
    </g>
    <path class="cls-1" d="M95.56,99.43c-1.23.97-1.82,2.41-2.49,4.21-.6-2.72-1.93-4.24-4.03-5.17,2.14-.94,3.39-2.44,4-5.02l.57,1.15c.57,2.05,1.87,3.01,3.51,3.85l-1.56.98Z"/>
    <path class="cls-1" d="M6.74,16.11c-1.28.95-1.89,2.36-2.57,4.12-.62-2.67-2-4.15-4.16-5.06,2.22-.92,3.5-2.38,4.13-4.92l.59,1.13c.59,2,1.94,2.95,3.63,3.77l-1.61.96Z"/>
    <path class="cls-1" d="M103.73,88.16c-2.13,1.32-3.15,3.28-4.3,5.72-1.03-3.7-3.34-5.76-6.95-7.03,3.7-1.27,5.85-3.31,6.9-6.82l.99,1.56c.99,2.78,3.24,4.09,6.05,5.24l-2.7,1.33Z"/>
    <path class="cls-1" d="M96.69,7.05c-1.72,1.15-2.55,2.84-3.47,4.96-.83-3.21-2.7-5-5.62-6.09,2.99-1.1,4.73-2.87,5.58-5.92l.8,1.36c.8,2.41,2.61,3.55,4.89,4.54l-2.18,1.16Z"/>
  </g>
</svg>