<?xml version="1.0" encoding="UTF-8"?>
<svg id="Vrstva_1" data-name="Vrstva 1" xmlns="http://www.w3.org/2000/svg" viewBox="0 0 97.57 79.75">
  <defs>
    <style>
      .cls-1 {
        fill: #3c3c3b;
      }
    </style>
  </defs>
  <g>
    <path class="cls-1" d="M8.15,39.9c-.3.54-.76.98-1.38,1.31s-1.39.5-2.32.5h-1.7v4.05H0v-11.29h4.45c.9,0,1.66.16,2.28.47.62.31,1.09.74,1.4,1.29.31.55.47,1.17.47,1.88,0,.65-.15,1.25-.45,1.79ZM5.42,39.15c.26-.25.39-.59.39-1.05s-.13-.8-.39-1.05c-.26-.25-.65-.37-1.17-.37h-1.5v2.83h1.5c.52,0,.92-.12,1.17-.37Z"/>
    <path class="cls-1" d="M12.79,33.86v11.9h-2.75v-11.9h2.75Z"/>
    <path class="cls-1" d="M14.76,38.83c.35-.7.82-1.23,1.42-1.61.6-.38,1.27-.56,2.01-.56.63,0,1.19.13,1.66.39s.84.59,1.1,1.01v-1.27h2.75v8.97h-2.75v-1.27c-.27.42-.64.76-1.12,1.01s-1.03.39-1.66.39c-.73,0-1.39-.19-1.99-.57-.6-.38-1.08-.92-1.42-1.62-.35-.7-.52-1.51-.52-2.44s.17-1.73.52-2.43ZM20.39,39.65c-.38-.4-.84-.59-1.39-.59s-1.01.2-1.39.59c-.38.39-.57.93-.57,1.62s.19,1.23.57,1.63c.38.4.84.6,1.39.6s1.01-.2,1.39-.6c.38-.4.57-.94.57-1.62s-.19-1.23-.57-1.62Z"/>
    <path class="cls-1" d="M25.73,38.83c.38-.7.91-1.23,1.59-1.61.68-.38,1.46-.56,2.34-.56,1.13,0,2.07.3,2.82.88.76.59,1.25,1.42,1.49,2.49h-2.93c-.25-.69-.72-1.03-1.43-1.03-.5,0-.91.2-1.21.59-.3.39-.45.95-.45,1.68s.15,1.29.45,1.68c.3.39.7.59,1.21.59.71,0,1.18-.34,1.43-1.03h2.93c-.24,1.05-.73,1.88-1.5,2.48-.76.6-1.7.9-2.81.9-.88,0-1.66-.19-2.34-.56-.68-.38-1.21-.91-1.59-1.61-.38-.7-.57-1.51-.57-2.45s.19-1.75.57-2.44Z"/>
    <path class="cls-1" d="M43.84,41.93h-6.22c.04.56.22.98.54,1.28s.7.44,1.17.44c.69,0,1.16-.29,1.43-.87h2.93c-.15.59-.42,1.12-.81,1.59-.39.47-.88.84-1.47,1.11-.59.27-1.25.4-1.98.4-.88,0-1.66-.19-2.35-.56-.69-.38-1.22-.91-1.61-1.61s-.58-1.51-.58-2.45.19-1.75.57-2.44c.38-.7.91-1.23,1.6-1.61.69-.38,1.47-.56,2.36-.56s1.64.18,2.32.55c.68.36,1.2.88,1.58,1.56.38.68.57,1.46.57,2.36,0,.26-.02.53-.05.8ZM41.08,40.41c0-.47-.16-.85-.48-1.13-.32-.28-.72-.42-1.21-.42s-.85.13-1.17.4c-.32.27-.51.65-.59,1.14h3.44Z"/>
    <path class="cls-1" d="M53.33,37.71c.62.68.93,1.62.93,2.81v5.24h-2.73v-4.87c0-.6-.16-1.07-.47-1.4-.31-.33-.73-.5-1.25-.5s-.94.17-1.25.5c-.31.33-.47.8-.47,1.4v4.87h-2.75v-11.9h2.75v4.13c.28-.4.66-.71,1.14-.95s1.02-.35,1.62-.35c1.03,0,1.86.34,2.48,1.02Z"/>
    <path class="cls-1" d="M57.89,45.33c-.7-.38-1.25-.91-1.66-1.61-.4-.7-.6-1.51-.6-2.45s.2-1.73.61-2.44c.41-.7.97-1.24,1.67-1.62.71-.38,1.5-.56,2.38-.56s1.67.19,2.38.56c.71.38,1.27.91,1.67,1.62s.61,1.51.61,2.44-.21,1.73-.62,2.44-.98,1.24-1.69,1.62c-.71.38-1.51.56-2.39.56s-1.67-.19-2.37-.56ZM61.61,42.93c.37-.39.55-.94.55-1.66s-.18-1.27-.54-1.66c-.36-.39-.8-.58-1.33-.58s-.98.19-1.34.57c-.35.38-.53.94-.53,1.66s.17,1.27.52,1.66c.35.39.79.58,1.31.58s.97-.19,1.34-.58Z"/>
    <path class="cls-1" d="M69.18,33.86v11.9h-2.75v-11.9h2.75Z"/>
    <path class="cls-1" d="M71.15,38.83c.35-.7.82-1.23,1.42-1.61.6-.38,1.27-.56,2.01-.56.59,0,1.13.12,1.62.37.49.25.87.58,1.15,1v-4.17h2.75v11.9h-2.75v-1.29c-.26.43-.63.77-1.1,1.03s-1.03.39-1.66.39c-.74,0-1.41-.19-2.01-.57-.6-.38-1.08-.92-1.42-1.62-.35-.7-.52-1.51-.52-2.44s.17-1.73.52-2.43ZM76.78,39.65c-.38-.4-.84-.59-1.39-.59s-1.01.2-1.39.59c-.38.39-.57.93-.57,1.62s.19,1.23.57,1.63c.38.4.84.6,1.39.6s1.01-.2,1.39-.6c.38-.4.57-.94.57-1.62s-.19-1.23-.57-1.62Z"/>
    <path class="cls-1" d="M90.5,41.93h-6.22c.04.56.22.98.54,1.28s.7.44,1.17.44c.69,0,1.16-.29,1.43-.87h2.93c-.15.59-.42,1.12-.81,1.59-.39.47-.88.84-1.47,1.11-.59.27-1.25.4-1.98.4-.88,0-1.66-.19-2.35-.56-.69-.38-1.22-.91-1.61-1.61s-.58-1.51-.58-2.45.19-1.75.57-2.44c.38-.7.91-1.23,1.6-1.61.69-.38,1.47-.56,2.36-.56s1.64.18,2.32.55c.68.36,1.2.88,1.58,1.56.38.68.57,1.46.57,2.36,0,.26-.02.53-.05.8ZM87.74,40.41c0-.47-.16-.85-.48-1.13-.32-.28-.72-.42-1.21-.42s-.85.13-1.17.4c-.32.27-.51.65-.59,1.14h3.44Z"/>
    <path class="cls-1" d="M95.96,37.12c.48-.28,1.02-.43,1.61-.43v2.91h-.76c-.69,0-1.2.15-1.54.44-.34.3-.52.81-.52,1.55v4.17h-2.75v-8.97h2.75v1.5c.32-.49.72-.88,1.21-1.17Z"/>
  </g>
  <g>
    <polygon class="cls-1" points="67.09 29.44 85.64 0 63.61 0 49.52 24.08 33.49 0 10.89 0 30.52 29.44 67.09 29.44"/>
    <polygon class="cls-1" points="30.02 50.31 11.46 79.75 33.49 79.75 47.82 55.32 64.06 79.75 86.67 79.75 67.04 50.31 30.02 50.31"/>
  </g>
</svg>