<?xml version="1.0" encoding="UTF-8"?>
<svg id="Vrstva_1" data-name="Vrstva 1" xmlns="http://www.w3.org/2000/svg" viewBox="0 0 94.43 116.59">
  <defs>
    <style>
      .cls-1 {
        fill: #606060;
      }

      .cls-1, .cls-2 {
        stroke-width: 1.15px;
      }

      .cls-1, .cls-2, .cls-3 {
        stroke: #333;
        stroke-miterlimit: 10;
      }

      .cls-4, .cls-2 {
        fill: #fff;
      }

      .cls-5 {
        fill: #333;
      }

      .cls-3 {
        fill: none;
        stroke-width: 2.55px;
      }
    </style>
  </defs>
  <g>
    <circle class="cls-5" cx="47.22" cy="69.38" r="47.22"/>
    <circle class="cls-4" cx="47.22" cy="69.38" r="39.35"/>
    <circle class="cls-5" cx="47.22" cy="69.38" r="4.25"/>
    <path class="cls-5" d="M59.8,47.16h0c.97,0,1.75.78,1.75,1.75v24.11h-3.5v-24.11c0-.97.78-1.75,1.75-1.75Z" transform="translate(72.26 -23.76) rotate(53.31)"/>
    <path class="cls-5" d="M37.41,52.96h.4c.86,0,1.55.7,1.55,1.55v18.26h-3.5v-18.26c0-.86.7-1.55,1.55-1.55Z" transform="translate(-35.49 58.14) rotate(-55.41)"/>
    <rect class="cls-5" x="45.44" y="32.82" width="3.21" height="7.78" rx="1.48" ry="1.48"/>
    <rect class="cls-5" x="45.61" y="98.15" width="3.21" height="7.78" rx="1.48" ry="1.48"/>
    <rect class="cls-5" x="78.36" y="65.49" width="3.21" height="7.78" rx="1.48" ry="1.48" transform="translate(149.34 -10.59) rotate(90)"/>
    <rect class="cls-5" x="12.86" y="65.49" width="3.21" height="7.78" rx="1.48" ry="1.48" transform="translate(83.84 54.91) rotate(90)"/>
    <rect class="cls-5" x="62.61" y="37.38" width="2.66" height="6.43" rx="1.22" ry="1.22" transform="translate(28.87 -26.53) rotate(30)"/>
    <rect class="cls-5" x="28.83" y="94.94" width="2.66" height="6.43" rx="1.22" ry="1.22" transform="translate(53.12 -1.93) rotate(30)"/>
    <rect class="cls-5" x="28.73" y="37.38" width="2.66" height="6.43" rx="1.22" ry="1.22" transform="translate(-16.27 20.47) rotate(-30)"/>
    <rect class="cls-5" x="62.61" y="94.94" width="2.66" height="6.43" rx="1.22" ry="1.22" transform="translate(-40.51 45.12) rotate(-30)"/>
    <rect class="cls-5" x="74.75" y="49.6" width="2.66" height="6.43" rx="1.22" ry="1.22" transform="translate(78.98 -39.75) rotate(57.03)"/>
    <rect class="cls-5" x="17.03" y="82.72" width="2.66" height="6.43" rx="1.22" ry="1.22" transform="translate(80.46 23.77) rotate(57.03)"/>
    <rect class="cls-5" x="16.64" y="49.6" width="2.66" height="6.43" rx="1.22" ry="1.22" transform="translate(72.69 63.66) rotate(120)"/>
    <rect class="cls-5" x="74.75" y="83.15" width="2.66" height="6.43" rx="1.22" ry="1.22" transform="translate(188.91 63.66) rotate(120)"/>
    <rect class="cls-5" x="13.44" y="19.92" width="8.16" height="14.57" transform="translate(-12.79 15.86) rotate(-36.69)"/>
    <rect class="cls-5" x="10.83" y="16.4" width="8.26" height="14.76" rx="2.35" ry="2.35" transform="translate(4.83 49.99) rotate(-126.69)"/>
    <rect class="cls-5" x="72.57" y="19.89" width="8.16" height="14.57" transform="translate(28.7 -38.51) rotate(34.36)"/>
    <rect class="cls-5" x="74.93" y="16.26" width="8.26" height="14.76" rx="2.35" ry="2.35" transform="translate(14.92 75.57) rotate(-55.64)"/>
    <circle class="cls-3" cx="47.05" cy="13.35" r="12.07"/>
  </g>
  <g>
    <g>
      <path class="cls-1" d="M41.51,80.74h-17.34v7.67c.74-.81,1.78-1.48,3.11-2,1.33-.52,2.78-.78,4.34-.78,2.78,0,5.09.63,6.92,1.89,1.83,1.26,3.18,2.89,4.03,4.89.85,2,1.28,4.17,1.28,6.5,0,4.34-1.22,7.77-3.67,10.31-2.45,2.54-5.89,3.81-10.34,3.81-2.97,0-5.54-.51-7.73-1.53-2.19-1.02-3.87-2.44-5.06-4.25-1.19-1.82-1.83-3.91-1.95-6.28h9.28c.22,1.15.76,2.1,1.61,2.86.85.76,2.02,1.14,3.5,1.14,1.74,0,3.04-.56,3.89-1.67.85-1.11,1.28-2.59,1.28-4.45s-.44-3.2-1.33-4.17c-.89-.96-2.19-1.45-3.89-1.45-1.26,0-2.3.31-3.11.92-.82.61-1.35,1.42-1.61,2.42h-9.17v-24.18h25.96v8.34Z"/>
      <path class="cls-1" d="M52.76,77.12c2.46-3.67,6.44-5.5,11.92-5.5s9.46,1.83,11.92,5.5c2.46,3.67,3.7,8.69,3.7,15.06s-1.23,11.51-3.7,15.18c-2.46,3.67-6.44,5.5-11.92,5.5s-9.46-1.83-11.92-5.5c-2.46-3.67-3.7-8.73-3.7-15.18s1.23-11.4,3.7-15.06ZM69.75,83.54c-.82-2.02-2.5-3.03-5.06-3.03s-4.24,1.01-5.06,3.03c-.82,2.02-1.22,4.9-1.22,8.64,0,2.52.15,4.61.44,6.25.3,1.65.9,2.98,1.81,4,.91,1.02,2.25,1.53,4.03,1.53s3.12-.51,4.03-1.53c.91-1.02,1.51-2.35,1.81-4,.3-1.65.44-3.73.44-6.25,0-3.74-.41-6.62-1.22-8.64Z"/>
    </g>
    <g>
      <path class="cls-2" d="M41.51,77.81h-17.34v7.67c.74-.81,1.78-1.48,3.11-2,1.33-.52,2.78-.78,4.34-.78,2.78,0,5.09.63,6.92,1.89,1.83,1.26,3.18,2.89,4.03,4.89.85,2,1.28,4.17,1.28,6.5,0,4.34-1.22,7.77-3.67,10.31-2.45,2.54-5.89,3.81-10.34,3.81-2.97,0-5.54-.51-7.73-1.53-2.19-1.02-3.87-2.44-5.06-4.25-1.19-1.82-1.83-3.91-1.95-6.28h9.28c.22,1.15.76,2.1,1.61,2.86.85.76,2.02,1.14,3.5,1.14,1.74,0,3.04-.56,3.89-1.67.85-1.11,1.28-2.59,1.28-4.45s-.44-3.2-1.33-4.17c-.89-.96-2.19-1.45-3.89-1.45-1.26,0-2.3.31-3.11.92-.82.61-1.35,1.42-1.61,2.42h-9.17v-24.18h25.96v8.34Z"/>
      <path class="cls-2" d="M52.76,74.19c2.46-3.67,6.44-5.5,11.92-5.5s9.46,1.83,11.92,5.5c2.46,3.67,3.7,8.69,3.7,15.06s-1.23,11.51-3.7,15.18c-2.46,3.67-6.44,5.5-11.92,5.5s-9.46-1.83-11.92-5.5c-2.46-3.67-3.7-8.73-3.7-15.18s1.23-11.4,3.7-15.06ZM69.74,80.61c-.82-2.02-2.5-3.03-5.06-3.03s-4.24,1.01-5.06,3.03c-.82,2.02-1.22,4.9-1.22,8.64,0,2.52.15,4.61.44,6.25.3,1.65.9,2.98,1.81,4,.91,1.02,2.25,1.53,4.03,1.53s3.12-.51,4.03-1.53c.91-1.02,1.51-2.35,1.81-4,.3-1.65.44-3.73.44-6.25,0-3.74-.41-6.62-1.22-8.64Z"/>
    </g>
  </g>
</svg>