<svg width="1652" height="993" xmlns="http://www.w3.org/2000/svg" xmlns:xlink="http://www.w3.org/1999/xlink" xml:space="preserve" overflow="hidden"><defs><clipPath id="clip0"><rect x="3492" y="1384" width="1652" height="993"/></clipPath></defs><g clip-path="url(#clip0)" transform="translate(-3492 -1384)"><rect x="3493" y="1385" width="1649" height="990" fill="#FFFFFF"/><g><path d="M3814.5 2049.57 5071.5 2049.57M3814.5 1926.56 5071.5 1926.56M3814.5 1803.56 5071.5 1803.56M3814.5 1681.56 5071.5 1681.56M3814.5 1558.55 5071.5 1558.55M3814.5 1435.5 5071.5 1435.5" stroke="#D9D9D9" stroke-width="3.4375" stroke-linejoin="round" stroke-miterlimit="10" fill="none"/></g><g><path d="M0 0 0.000360892 737" stroke="#BFBFBF" stroke-width="3.4375" stroke-linejoin="round" stroke-miterlimit="10" fill="none" fill-rule="evenodd" transform="matrix(1 0 0 -1 3814.5 2172.5)"/></g><g><path d="M3801.5 2172.5 3814.5 2172.5M3801.5 2049.57 3814.5 2049.57M3801.5 1926.56 3814.5 1926.56M3801.5 1803.56 3814.5 1803.56M3801.5 1681.56 3814.5 1681.56M3801.5 1558.55 3814.5 1558.55M3801.5 1435.5 3814.5 1435.5" stroke="#BFBFBF" stroke-width="3.4375" stroke-linejoin="round" stroke-miterlimit="10" fill="none"/></g><g><path d="M3814.5 2172.5 5071.5 2172.5" stroke="#BFBFBF" stroke-width="3.4375" stroke-linejoin="round" stroke-miterlimit="10" fill="none" fill-rule="evenodd"/></g><g><path d="M3814.5 2172.5 3814.5 2185.5M4023.63 2172.5 4023.63 2185.5M4233.64 2172.5 4233.64 2185.5M4442.65 2172.5 4442.65 2185.5M4652.65 2172.5 4652.65 2185.5M4861.66 2172.5 4861.66 2185.5M5071.5 2172.5 5071.5 2185.5" stroke="#BFBFBF" stroke-width="3.4375" stroke-linejoin="round" stroke-miterlimit="10" fill="none"/></g><g><path d="M3835.5 2166.5C3842.48 2166.3 3849.46 2166.1 3856.44 2165.89 3863.42 2165.67 3870.4 2165.45 3877.38 2165.21 3884.36 2164.97 3891.34 2164.73 3898.32 2164.47 3905.3 2164.21 3912.28 2163.94 3919.26 2163.65 3926.23 2163.36 3933.21 2163.07 3940.19 2162.75 3947.17 2162.44 3954.15 2162.11 3961.13 2161.76 3968.11 2161.42 3975.09 2161.06 3982.07 2160.68 3989.05 2160.3 3996.03 2159.9 4003.01 2159.48 4009.99 2159.06 4016.97 2158.62 4023.95 2158.16 4030.93 2157.7 4037.91 2157.22 4044.89 2156.72 4051.87 2156.21 4058.85 2155.68 4065.83 2155.12 4072.81 2154.57 4079.79 2153.99 4086.77 2153.37 4093.74 2152.76 4100.72 2152.12 4107.7 2151.45 4114.68 2150.77 4121.66 2150.07 4128.64 2149.33 4135.62 2148.58 4142.6 2147.81 4149.58 2147 4156.56 2146.18 4163.54 2145.33 4170.52 2144.43 4177.5 2143.53 4184.48 2142.6 4191.46 2141.61 4198.44 2140.62 4205.42 2139.59 4212.4 2138.51 4219.38 2137.42 4226.36 2136.29 4233.34 2135.09 4240.32 2133.9 4247.3 2132.65 4254.28 2131.34 4261.25 2130.03 4268.23 2128.66 4275.21 2127.21 4282.19 2125.76 4289.17 2124.26 4296.15 2122.67 4303.13 2121.08 4310.11 2119.42 4317.09 2117.67 4324.07 2115.92 4331.05 2114.1 4338.03 2112.17 4345.01 2110.25 4351.99 2108.24 4358.97 2106.13 4365.95 2104.01 4372.93 2101.8 4379.91 2099.47 4386.89 2097.15 4393.87 2094.72 4400.85 2092.16 4407.83 2089.6 4414.81 2086.93 4421.79 2084.11 4428.77 2081.29 4435.75 2078.36 4442.72 2075.26 4449.7 2072.16 4456.68 2068.93 4463.66 2065.52 4470.64 2062.11 4477.62 2058.56 4484.6 2054.81 4491.58 2051.06 4498.56 2047.15 4505.54 2043.02 4512.52 2038.9 4519.5 2034.6 4526.48 2030.06 4533.46 2025.52 4540.44 2020.79 4547.42 2015.8 4554.4 2010.81 4561.38 2005.61 4568.36 2000.12 4575.34 1994.63 4582.32 1988.91 4589.3 1982.87 4596.28 1976.83 4603.25 1970.53 4610.23 1963.89 4617.21 1957.25 4624.19 1950.32 4631.17 1943.02 4638.15 1935.71 4645.13 1928.09 4652.11 1920.05 4659.09 1912.02 4666.07 1903.64 4673.05 1894.8 4680.03 1885.96 4687.01 1876.74 4693.99 1867.01 4700.97 1857.29 4707.95 1847.15 4714.93 1836.45 4721.91 1825.75 4728.89 1814.6 4735.87 1802.83 4742.85 1791.06 4749.83 1778.79 4756.81 1765.85 4763.79 1752.91 4770.77 1739.41 4777.75 1725.17 4784.72 1710.93 4791.7 1696.08 4798.68 1680.42 4805.66 1664.76 4812.64 1648.43 4819.62 1631.2 4826.6 1613.97 4833.58 1596.01 4840.56 1577.06 4847.54 1558.11 4854.52 1537.35 4861.5 1517.5" stroke="#46B1E1" stroke-width="6.875" stroke-linecap="round" stroke-linejoin="round" stroke-miterlimit="10" fill="none"/></g><g><text fill="#595959" font-family="Aptos Narrow,Aptos Narrow_MSFontService,sans-serif" font-weight="400" font-stretch="semi-condensed" font-size="41" transform="matrix(1 0 0 1 3703.08 2184)">0,00</text></g><g><text fill="#595959" font-family="Aptos Narrow,Aptos Narrow_MSFontService,sans-serif" font-weight="400" font-stretch="semi-condensed" font-size="41" transform="matrix(1 0 0 1 3640.38 2061)">2000,00</text></g><g><text fill="#595959" font-family="Aptos Narrow,Aptos Narrow_MSFontService,sans-serif" font-weight="400" font-stretch="semi-condensed" font-size="41" transform="matrix(1 0 0 1 3640.38 1938)">4000,00</text></g><g><text fill="#595959" font-family="Aptos Narrow,Aptos Narrow_MSFontService,sans-serif" font-weight="400" font-stretch="semi-condensed" font-size="41" transform="matrix(1 0 0 1 3640.38 1815)">6000,00</text></g><g><text fill="#595959" font-family="Aptos Narrow,Aptos Narrow_MSFontService,sans-serif" font-weight="400" font-stretch="semi-condensed" font-size="41" transform="matrix(1 0 0 1 3640.38 1693)">8000,00</text></g><g><text fill="#595959" font-family="Aptos Narrow,Aptos Narrow_MSFontService,sans-serif" font-weight="400" font-stretch="semi-condensed" font-size="41" transform="matrix(1 0 0 1 3619.48 1570)">10000,00</text></g><g><text fill="#595959" font-family="Aptos Narrow,Aptos Narrow_MSFontService,sans-serif" font-weight="400" font-stretch="semi-condensed" font-size="41" transform="matrix(1 0 0 1 3619.48 1447)">12000,00</text></g><g><text fill="#595959" font-family="Aptos Narrow,Aptos Narrow_MSFontService,sans-serif" font-weight="400" font-stretch="semi-condensed" font-size="41" transform="matrix(1 0 0 1 3804.14 2237)">0</text></g><g><text fill="#595959" font-family="Aptos Narrow,Aptos Narrow_MSFontService,sans-serif" font-weight="400" font-stretch="semi-condensed" font-size="41" transform="matrix(1 0 0 1 4003.12 2237)">10</text></g><g><text fill="#595959" font-family="Aptos Narrow,Aptos Narrow_MSFontService,sans-serif" font-weight="400" font-stretch="semi-condensed" font-size="41" transform="matrix(1 0 0 1 4212.55 2237)">20</text></g><g><text fill="#595959" font-family="Aptos Narrow,Aptos Narrow_MSFontService,sans-serif" font-weight="400" font-stretch="semi-condensed" font-size="41" transform="matrix(1 0 0 1 4421.99 2237)">30</text></g><g><text fill="#595959" font-family="Aptos Narrow,Aptos Narrow_MSFontService,sans-serif" font-weight="400" font-stretch="semi-condensed" font-size="41" transform="matrix(1 0 0 1 4631.42 2237)">40</text></g><g><text fill="#595959" font-family="Aptos Narrow,Aptos Narrow_MSFontService,sans-serif" font-weight="400" font-stretch="semi-condensed" font-size="41" transform="matrix(1 0 0 1 4840.85 2237)">50</text></g><g><text fill="#595959" font-family="Aptos Narrow,Aptos Narrow_MSFontService,sans-serif" font-weight="400" font-stretch="semi-condensed" font-size="41" transform="matrix(1 0 0 1 5050.28 2237)">60</text></g><g><text fill="#595959" font-family="Aptos Narrow,Aptos Narrow_MSFontService,sans-serif" font-weight="400" font-stretch="semi-condensed" font-size="46" transform="matrix(6.12323e-17 -1 1 6.12323e-17 3592.78 2037)">Potřebné XP na další level</text></g><g><text fill="#595959" font-family="Aptos Narrow,Aptos Narrow_MSFontService,sans-serif" font-weight="400" font-stretch="semi-condensed" font-size="46" transform="matrix(1 0 0 1 4395.13 2305)">Level</text></g><rect x="3493.5" y="1385.5" width="1649" height="990" stroke="#D9D9D9" stroke-width="3.4375" stroke-linejoin="round" stroke-miterlimit="10" fill="none"/></g></svg>